# xmcd
# Copyright (C) 1995-1998 Ti Kan
#
# Track frame offsets:
#       150
#       17561
#       29572
#       52097
#       68730
#       85863
#       102431
#       119567
#       133096
#       150398
#       165357
#       181504
#       218998
#
# Disc length: 3201 seconds
#
# Revision: 0
# Processed by: cddbd v1.5.1PL0 Copyright (c) Steve Scherf et al.
# Submitted via: CD-Transfer v1.0
#
DISCID=a90c7f0d
DTITLE=April - 
DYEAR=2001
DGENRE=
TTITLE0=Ceiling
TTITLE1=Soulcaughing
TTITLE2=Blue Eyes
TTITLE3=Mimikri
TTITLE4=Design
TTITLE5=Africa
TTITLE6=Aimless
TTITLE7=Colours Of Your Mind
TTITLE8=Ocean Of Love
TTITLE9=Good Morning
TTITLE10=Universe
TTITLE11=Venus
TTITLE12=Sea
EXTD=
EXTT0=
EXTT1=
EXTT2=
EXTT3=
EXTT4=
EXTT5=
EXTT6=
EXTT7=
EXTT8=
EXTT9=
EXTT10=
EXTT11=
EXTT12=
PLAYORDER=
